<?xml version="1.0" encoding="utf-8"?>
<!-- Generator: Adobe Illustrator 27.9.0, SVG Export Plug-In . SVG Version: 6.00 Build 0)  -->
<svg version="1.1" id="Layer_1" xmlns="http://www.w3.org/2000/svg" xmlns:xlink="http://www.w3.org/1999/xlink" x="0px" y="0px"
	 viewBox="0 0 512 512" style="enable-background:new 0 0 512 512;" xml:space="preserve">
<style type="text/css">
	.st0{fill:#FFA901;}
</style>
<g id="Layer_1_00000093164276671978587810000016043854764778647460_">
	<path class="st0" d="M233.2,236.8L163.6,221c3.6-5.6,8.4-13.6,13.5-23.4l72.8,7.2L233.2,236.8z M497.1,307.2
		c-1.2-1.8-3.1-3-5.3-3.2l-39.2-4.9c-63-77.3-102.4-150-109.8-164.1l8.5-33.6c1-4-1.4-8.1-5.4-9.1c-4-1-8.1,1.4-9.1,5.4l-4.6,18.3
		l-8.5-15c-2.1-3.6-6.6-4.9-10.2-2.8c-3.6,2.1-4.9,6.6-2.8,10.2l11.2,19.6l-173.1-4.5l6-18.6c1.3-3.9-0.9-8.2-4.8-9.5
		c-3.9-1.3-8.2,0.9-9.5,4.8l-4.5,13.7l-5.1-7.3c-2.4-3.4-7-4.3-10.4-1.9c-3.4,2.4-4.3,7-1.9,10.4l11.6,16.8
		c-5.3,16.4-30.8,90.4-85.3,165l-21.1-8.3c-2.7-1-5.7-0.5-7.8,1.4s-2.9,4.9-2.2,7.6l8.8,30.7c0,0,0,0,0,0.1c0.6,2.1,2.2,4,4.4,4.8
		l214.7,85.8c0,0,0,0,0,0c1,0.4,4.4,0.6,5.1,0.4L484.2,352c2.5-0.7,4.5-2.7,5.2-5.2c0,0,0,0,0-0.1c0,0,0,0,0-0.1l8.7-33.3
		C498.7,311.2,498.3,309,497.1,307.2L497.1,307.2z M36.2,320.9l-3.6-12.6l192.1,75.4l6.4,15L36.2,320.9z M397.1,361.2v-68.8
		c0-2.5-0.4-24.2-14.3-34.2c-5.1-3.6-14-7-27.4-2.4c-14.6,4.8-24.5,16.5-28.8,34c-2.7,11.2-2.2,21.4-2.1,23.5V382l-65.8,18.8
		c16-35.6,55.9-130.4,79.5-243c16.5,29.4,52.9,90,104.7,153.2c8.4,10.3,17,20.3,25.6,29.9L397.1,361.2z"/>
</g>
<g id="Guides_For_Artboard">
</g>
</svg>
