<?xml version="1.0" encoding="utf-8"?>
<!-- Generator: Adobe Illustrator 27.9.0, SVG Export Plug-In . SVG Version: 6.00 Build 0)  -->
<svg version="1.1" id="Capa_1" xmlns="http://www.w3.org/2000/svg" xmlns:xlink="http://www.w3.org/1999/xlink" x="0px" y="0px"
	 viewBox="0 0 512 512" style="enable-background:new 0 0 512 512;" xml:space="preserve">
<style type="text/css">
	.st0{fill:#E74A21;}
</style>
<g>
	<g>
		<path class="st0" d="M404.8,94.7c-6.9,0-12.4,5.6-12.4,12.4s5.6,12.4,12.4,12.4c6.9,0,12.4-5.6,12.4-12.4S411.7,94.7,404.8,94.7z"
			/>
	</g>
</g>
<g>
	<g>
		<path class="st0" d="M256,145.8c-60.8,0-110.2,49.4-110.2,110.2S195.2,366.2,256,366.2c60.8,0,110.2-49.4,110.2-110.2
			S316.8,145.8,256,145.8z"/>
	</g>
</g>
<g>
	<g>
		<path class="st0" d="M371.6,0H140.4C63,0,0,63,0,140.4v231.3C0,449,63,512,140.4,512h231.3C449,512,512,449,512,371.6V140.4
			C512,63,449,0,371.6,0z M256,396.4c-77.4,0-140.4-63-140.4-140.4s63-140.4,140.4-140.4s140.4,63,140.4,140.4
			S333.4,396.4,256,396.4z M404.8,149.8c-23.5,0-42.7-19.1-42.7-42.7s19.1-42.7,42.7-42.7s42.7,19.1,42.7,42.7
			S428.4,149.8,404.8,149.8z"/>
	</g>
</g>
</svg>
