<?xml version="1.0" encoding="utf-8"?>
<!-- Generator: Adobe Illustrator 27.6.1, SVG Export Plug-In . SVG Version: 6.00 Build 0)  -->
<svg version="1.1" id="Layer_1" xmlns="http://www.w3.org/2000/svg" xmlns:xlink="http://www.w3.org/1999/xlink" x="0px" y="0px"
	 viewBox="0 0 1077 662.5" style="enable-background:new 0 0 1077 662.5;" xml:space="preserve">
<style type="text/css">
	.st0{fill-rule:evenodd;clip-rule:evenodd;fill:#242424;}
</style>
<g id="Guides_For_Artboard">
</g>
<g id="Layer_1_00000096746500343928451930000001063420800296619711_">
	<g>
		<path class="st0" d="M150.3,402.1c-14.5-49-21.2-107.6-31.7-165.1H88.4c-10.5,57.8-26.5,114.7-32,172.9c8.9-0.8,17.7-1.6,26.6-2.4
			c0.7-10,1.7-20,2.9-30l26.6-1.2c1.6,7.8,3.3,15.5,5.2,23l1.7-0.1c-1.9-7.5-3.6-15.1-5.1-22.9l3.3-0.1c1.9,9.6,3.9,19,6.2,28.1
			C132.6,403.4,141.5,402.7,150.3,402.1L150.3,402.1z M953.1,233.8L953.1,233.8h61.9v-1.7h-64.1c0,57.6,4.4,115.4,0.2,167.3l2.3,0.2
			C957.3,348.1,953.1,290.9,953.1,233.8L953.1,233.8z M957,237L957,237h64.1c0,6.9,0.1,13.8,0.2,20.7h-37.9
			c0.3,15.6,0.7,31.2,1.2,46.7l23.4,0.2v1.7l-23.4-0.2l0.1,3.2l29.4,0.2c0.2,6.9,0.4,13.7,0.5,20.6l-29.4-0.4
			c0.3,17.8,0.4,35.5-0.3,52.8c10.9,0.6,21.8,1.3,32.7,2l-0.1,1.6c-10.9-0.7-21.8-1.3-32.7-2l-0.1,3c13,0.7,26,1.5,39,2.3
			c-0.4,6.9-0.8,13.7-1.5,20.6c-21.7-2-43.3-3.9-65-5.6C961.3,352.4,957,294.6,957,237L957,237z M836.9,391.5L836.9,391.5
			c2.4-43.7-0.4-100.8-0.4-157.7H865c10.6,0,24.9,0.7,36,8.7c-11.4-9.6-26.9-10.4-38.2-10.4h-28.5c0,57.6,2.8,115.4,0.3,159.3
			L836.9,391.5L836.9,391.5z M840.5,237L840.5,237H869c19.7-0.1,52.1,2.6,53.1,49.2l0.1,4.3c0.6,25.9-6.9,41.5-21.6,48.1
			c9.5,21.8,18.6,42.8,26.4,63.3c-9.2-0.7-18.5-1.3-27.7-2c-6.4-18.3-13.9-37.5-21.7-57.5h-2.7c7.2,18.3,14,35.9,19.9,52.8l-1.6-0.1
			c-5.9-16.8-12.7-34.4-19.9-52.7l-5.6-0.1c0.1,19.8-0.1,38.5-1.2,55.5c-8.6-0.5-17.1-1-25.7-1.5C843.4,352.4,840.5,294.6,840.5,237
			L840.5,237z M867.4,319.8L867.4,319.8c-0.3-20.6-0.9-42-1.1-63.7h4c6.2,0,11,0.8,14.6,2.5c3.1,4.2,4.4,10.2,4.5,18.1l0.3,13.5
			C890.2,312.2,884.3,319.4,867.4,319.8L867.4,319.8z M867.4,321.5L867.4,321.5L867.4,321.5c18.6,0.1,25-6.8,24.5-29.6l-0.3-13.5
			c-0.2-8.6-1.7-14.9-5.4-19.1c6.6,3.8,9.1,11.1,9.3,22.3l0.3,13.5c0.5,22.8-5.9,29.7-24.4,29.6h-4L867.4,321.5L867.4,321.5z
			 M714.9,233.8L714.9,233.8h24.2v-1.7h-26.4c0,39.9,0.8,79.9,0.8,113.4c-0.1,20,5.9,30.3,13.8,35.8c-6.8-5.8-11.6-16-11.6-34.1
			C715.6,313.7,714.9,273.7,714.9,233.8L714.9,233.8z M718.8,237L718.8,237h26.4c0,42.2,1,84.5,0.9,119.6c0,8,0.8,13.3,2.7,16.7
			c1.6,0.5,3.4,0.7,5.6,0.8c10.3,0.2,15.5-4.1,15.6-22c0.1-35.6-1-77.9-1-120.1h26.1v1.7h-23.9c0,42.2,1.1,84.5,1,120.1
			c-0.1,17.9-5.3,22.2-15.6,22c-2.8-0.1-5.1-0.5-7-1.4c2.3,3.2,5.9,4.4,11,4.6c10.3,0.2,15.5-4.1,15.6-22c0.1-35.6-1-77.9-1-120.1
			h26.1c0,39.9,1.2,79.9,1.1,114.6c-0.3,43.3-27.5,41.7-42.4,41.8c-15.1-1.7-40.5-1.7-40.4-42.9C719.5,316.9,718.8,276.9,718.8,237
			L718.8,237z M605.6,233.8L605.6,233.8h79.6v-1.7h-81.8v20.6h2.2V233.8L605.6,233.8z M637.4,257.6L637.4,257.6h-3.9
			c0.2,48.5,0.7,94.8,0.1,126.1h-2.2c0.6-30.9,0.1-77.4-0.1-126.1h-21.7V237h81.8c0,6.9,0,13.8,0.1,20.6h-27.7
			c0.2,50.5,0.9,99.1,0.1,131.5c-8.8-0.2-17.5-0.4-26.3-0.6C638.1,356.6,637.5,308.1,637.4,257.6L637.4,257.6z M492.9,382.9
			L492.9,382.9c-0.3-35.7,0.1-92.4,0.1-149.1h19.7l-0.6-1.7h-21.3c0,57.6-0.4,115.3-0.1,150.8H492.9L492.9,382.9z M518.2,296.3
			L518.2,296.3h-0.8l0.5,6.1c12.4,31.3,24.8,59.5,37.1,80.4h-1.2c-11.8-19.6-23.7-46-35.5-75.5c0.8,10.1,1.8,23.5,1.8,44
			c0,13.7,0,26,0.1,36.4c-7.8,0-15.5,0.1-23.3,0.1c-0.3-35.5,0.1-93.2,0.1-150.8h21.3c11.7,32.5,23.5,64.9,35.3,93.4
			c-0.8-8.3-1.6-19.5-1.6-36.4v-62h23.5v1.7H554v62c0,20.2,1.2,32.4,2.1,41.1c1.3,3.1,2.6,6.2,4,9.2h0.6c-0.9-8.9-2.8-21.7-2.8-47.1
			v-62h23.5c0,57.6,0.4,115.3,0.1,150.8c-7.2-0.1-14.3-0.1-21.5-0.1C546.1,364.6,532.1,332.1,518.2,296.3L518.2,296.3z M398.3,384.5
			L398.3,384.5c-0.9-37.2,0.2-94,0.2-150.7h61.9v-1.7h-64.1c0,57.6-1.2,115.3-0.2,152.4H398.3L398.3,384.5z M402.5,237L402.5,237
			h64.1v20.6h-37.9c-0.1,15.4-0.1,30.7-0.2,45.3h23.2v1.7h-23.2v3.2h29.3l-0.1,18.9l-29.4,0.1c-0.1,15.6-0.1,30.2,0,43.1
			c11-0.1,21.9-0.3,32.9-0.4v1.7c-11,0.1-21.9,0.2-32.9,0.4v3.2c13-0.2,26-0.3,39-0.5l0.1,13.7c-21.7,0.3-43.5,0.7-65.2,1.3
			C401.3,352.3,402.5,294.6,402.5,237L402.5,237z M309.2,387.5L309.2,387.5c-12-39.8-20.4-97-30.6-153.7h24.9l-0.2-1.7h-26.8
			c10.4,57.5,18.8,115.7,31.1,155.5L309.2,387.5L309.2,387.5z M348.7,237L348.7,237h26.7c-10.4,57.7-22.6,115-31.7,154.3
			c-10,0.4-20,0.8-30,1.2c-12.3-39.8-20.7-98-31.1-155.5h26.8c5.4,38.7,9.9,77.5,15.2,110.7c5.7-34.4,12.3-75,17.9-115.6h26.7
			l-0.3,1.7h-24.2c-6,43-13,85.9-18.9,121.5c0.6,3.3,1.1,6.6,1.7,9.8h1.1C334.8,328.3,342.3,282.7,348.7,237L348.7,237z
			 M200.9,233.8L200.9,233.8c12.4-0.1,26.7,0.3,37.8,8.2c-11.3-9.5-26.7-10.1-40-9.9h-27.2c0,57.6-3.6,115.4-0.3,163.1l2.1-0.1
			c-3.1-47.4,0.4-104.4,0.4-161.3H200.9L200.9,233.8z M177.6,237L177.6,237h27.2c24.8-0.2,57.1,1.8,56.2,60.7
			c-0.3,16.2-0.5,32-0.6,46.9c0.1,51.9-30.7,51-55.9,53.7c-9.1,0.6-18.1,1.2-27.2,1.8C174,352.4,177.6,294.6,177.6,237L177.6,237z
			 M203.7,256.1L203.7,256.1h6.7c4.8,0,8.7,0.5,11.8,1.8c4.2,5.9,5.5,16.4,5.1,33.6c-0.3,17.4-0.6,34.3-0.7,50.4
			c0,28.9-4.2,35-23.3,36.1h-0.7C201.6,341.5,203.3,299.1,203.7,256.1L203.7,256.1z M202.7,380L202.7,380l2.9-0.1
			c19.2-1.1,23.3-7.2,23.3-36.2c0.1-16.1,0.4-33,0.7-50.4c0.3-18.3-1.1-28.9-6-34.7c8.1,4.4,10.3,15.4,9.9,37.8
			c-0.3,17.4-0.6,34.3-0.7,50.4c0,28.9-4.2,35-23.3,36.2l-6.7,0.3L202.7,380L202.7,380z M52.6,404.7L52.6,404.7l-2.4,0.2
			c5.5-58.1,21.5-115,32-172.9h30.2l0.3,1.7H84.5C74.1,291,58.3,347.3,52.6,404.7L52.6,404.7z M103.6,273L103.6,273
			c3.4,28.6,6.4,57.1,10.6,84.4l-25.7,0.8l0.5-3.3l21.3-0.6c-3.6-23.6-6.4-48-9.2-72.6l1.4-8.6L103.6,273L103.6,273z M99.9,288.6
			L99.9,288.6c2.5,21.7,5,43.1,8.2,63.9L89.3,353C92.4,331.8,96.2,310.3,99.9,288.6z"/>
		<g>
			<path class="st0" d="M268,580.6c2.4-7.5,4.9-14.9,7.3-22.4c6.2-19,16.6-17.6,22.5-15.9c10.3,3.1,11.9,10.1,9.8,17.6
				c-0.8,2.7-1.7,4.8-3,7.4c-2.8-0.8-5.5-1.6-8.2-2.4c0.3-1.1,0.6-2.2,1-3.2c2.1-7,1.4-11-1.6-11.9c-3.7-1.1-6.4,0.8-8.9,9
				c-3,9.7-6,19.3-9,29c-2.4,7.9-1.6,10.8,2.7,12.1c2.7,0.8,5.9-0.7,7.4-5.8c0.6-2.1,1.2-4.2,1.8-6.2c3.2,0.9,6.4,1.9,9.6,2.8
				c-0.6,2-1.1,3.9-1.7,5.9c-2.9,10.3-9.6,13.6-19.4,10.7C271.6,605.1,261.8,599.6,268,580.6z"/>
			<path class="st0" d="M366.3,560.4c3.9,0.8,7.7,1.6,11.6,2.4c-0.2,22.6,0,45.1,0.5,67.8c-3.7-0.7-7.4-1.4-11-2.1
				c0.1-4,0.2-8.1,0.3-12.1c-4.3-0.8-8.6-1.7-12.9-2.6c-1.4,3.8-2.9,7.5-4.3,11.3c-3.7-0.8-7.4-1.6-11-2.4
				C348.7,602,357.7,581.3,366.3,560.4L366.3,560.4z M367.9,608.7L367.9,608.7c0.5-11.2,1-22.3,1.7-33.5c-0.1,0-0.3-0.1-0.4-0.1
				c-3.8,10.5-7.7,21-11.6,31.4C361,607.4,364.5,608.1,367.9,608.7z"/>
			<path class="st0" d="M436.8,572.1c4.4,0.5,8.9,1,13.3,1.5c1.3,8.8,2.6,17.5,4,26.3c0.9,5.8,1.1,11.1,1.4,15.7c0.1,0,0.2,0,0.3,0
				c1.2-4.4,2.3-9.6,4.3-15.1c3.1-8.3,6-16.7,8.9-25.1c4.3,0.4,8.7,0.7,13,1c-1.4,22.1-2.9,44.2-4.3,66.4c-3.4-0.2-6.9-0.5-10.3-0.7
				c0.6-7.3,1.1-14.6,1.7-21.9c1-13.5,2.6-25.2,3.4-29.8c-0.3,0-0.5,0-0.8-0.1c-4.5,14.2-9.3,28.3-14.2,42.4
				c-2.3-0.2-4.6-0.4-6.9-0.6c-2.3-14.8-4.3-29.5-6.2-44.3c-0.3,0-0.5-0.1-0.8-0.1c-0.1,4.7-0.7,16.5-2.2,29.9
				c-0.8,7.3-1.6,14.6-2.4,21.9c-3.4-0.4-6.9-0.8-10.3-1.2C431.4,616.1,434.1,594.1,436.8,572.1z"/>
			<path class="st0" d="M534,578.1c3.4,0,6.8,0,10.2,0c7.8,0,20.8,0.6,21.5,20.1c0,0.8,0.1,1.6,0.1,2.3
				c0.8,21.3-11.8,23.7-20.1,23.8c-0.3,0-0.7,0-1,0c0.1,6.8,0.1,13.5,0.2,20.3c-3.7,0-7.4,0.1-11.1,0
				C533.9,622.4,533.9,600.2,534,578.1L534,578.1z M545.1,616.9L545.1,616.9c7.8-0.1,10.2-4.2,9.9-14.2c0-2-0.1-4-0.1-6
				c-0.2-7.9-2.3-11.4-10.1-11.3c-0.2,0-0.3,0-0.5,0c0.1,10.5,0.2,21,0.3,31.5C544.8,616.9,545,616.9,545.1,616.9z"/>
			<path class="st0" d="M613.1,574.4c3.4-0.3,6.8-0.7,10.2-1c2.4,22,4.7,44.1,7.1,66.1c-3.7,0.4-7.3,0.8-11,1.1
				C617.3,618.5,615.2,596.5,613.1,574.4z"/>
			<path class="st0" d="M674.8,566.1c2.7-0.5,5.5-1,8.2-1.5c8,13.6,16.4,27.1,25,40.5c0.1,0,0.2,0,0.3,0c-1.2-4-3.1-9.5-5.1-19.6
				c-1.6-7.9-3.2-15.9-4.8-23.8c3-0.6,6-1.2,9-1.9c4.6,21.7,9.3,43.4,13.9,65c-3,0.6-5.9,1.3-8.9,1.9c-8.7-13-17-26.1-25.1-39.3
				c-0.1,0-0.2,0-0.3,0.1c1.2,4.6,2.9,10,5.4,23.2c1.2,6.4,2.4,12.8,3.5,19.2c-3.2,0.6-6.5,1.2-9.7,1.7
				C682.4,609.8,678.6,588,674.8,566.1z"/>
			<path class="st0" d="M768.8,590.9c-2.1-7.6-4.2-15.1-6.4-22.7c-5.4-19.3,4.6-24,10.9-26c10.5-3.2,16.2,1.6,18.6,8.9
				c0.9,2.7,1.2,4.9,1.5,7.9c-2.7,0.9-5.4,1.7-8.1,2.6c-0.3-1-0.6-2-0.9-3c-2.2-6.9-5.2-9.8-9.1-8.7c-4.2,1.3-5.4,4.4-3,12.6
				c2.8,9.6,5.7,19.3,8.5,28.9c2.3,7.9,5.1,9.8,9.5,8.4c4.7-1.4,5.2-6.8,3.3-12.9c-0.9-2.8-1.7-5.5-2.6-8.3
				c-1.8,0.6-3.5,1.1-5.3,1.6c-0.6-2.1-1.3-4.2-1.9-6.3c5.1-1.6,10.2-3.1,15.3-4.8c3.5,10.7,6.9,21.4,10.4,32
				c-2.4,0.8-4.7,1.5-7.1,2.3c-1-1.9-2-3.8-3-5.6c-1.2,5.6-4,8.5-8.8,9.9C785.7,609.2,774.2,610.1,768.8,590.9z"/>
		</g>
		<g>
			<path class="st0" d="M526.4,89.4c-0.5-0.7-0.7-1.1-0.6-1.5c0.1-0.4,0.1-0.7,0-0.9c-0.1-0.2-0.7-0.4-1.8-0.5
				c-1.2-0.1-2.6-0.2-4.3-0.5c-1.6-0.2-3.2-0.4-4.8-0.5c-1.5-0.1-2.7-0.1-3.6,0c-0.3,0.1-0.9,0.7-1.6,1.8c-0.8,1.1-1.7,2.5-2.8,4.1
				c-1,1.6-2.1,3.3-3.2,5.1c-1.1,1.8-2.2,3.4-3.1,4.8c-1,1.4-1.7,2.5-2.3,3.2c-1.1,1.2-2,2.4-2.6,3.6c-0.6,1.1-1.2,2.3-1.7,3.4
				c-0.6,1.1-1.3,2.3-2.2,3.6c-0.8,1.1-1.5,2.1-1.8,3.2c-0.4,1.1-0.7,2.2-1.1,3.3c-0.3,1.1-1,2.2-1.8,3.4c-1,1.4-2.2,3.4-3.7,6.2
				s-3,6-4.7,9.6s-3.4,7.2-5,10.9s-3.2,7.1-4.6,10.2c-1.4,3.2-2.5,5.7-3.3,7.7s-1.4,3-1.4,3.1c-0.3-0.2-0.5-1.1-0.7-2.7
				c-0.2-1.6-0.3-3.6-0.5-6c-0.1-2.4-0.2-4.9-0.3-7.6c-0.1-2.7-0.1-5.2-0.2-7.6c-0.1-2.4-0.1-4.4-0.2-6s-0.2-2.5-0.3-2.8
				c0-0.2,0.1-0.5,0.2-0.9s0.2-0.9,0.2-1.3c0.1-0.5,0.1-0.8-0.1-0.9c-0.7-2.4-1.2-5.3-1.6-8.7c-0.4-3.4-0.9-7.1-1.4-10.9
				c-0.1-1-0.1-1.7-0.1-2.1s-0.2-0.7-0.7-0.7c-0.4-0.1-1.3-0.2-2.6-0.1l-3.1-1l-2.7-0.5h-3.7l-5.4-0.5c-3.1,0-5.1,0.2-5.9,0.9
				c-0.8,0.6-1,1.9-0.6,3.8c0.1,0.6,0.1,1,0.1,1.3c-0.1,0.2-0.1,0.4-0.2,0.6s-0.2,0.6-0.2,1.1c-1.2,2.3-2.7,5.1-4.1,8.4
				c-1.5,3.3-3.1,6.8-4.6,10.4c-1.6,3.7-3.1,7.4-4.5,11c-1.5,3.6-2.8,6.9-4,9.8c-1.1,3-2.1,5.3-2.8,7.1c-0.7,1.8-1,2.7-1,2.7
				c-0.5-0.2-0.9-1.1-1.4-2.6s-1-3.3-1.5-5.2c-0.5-2-0.9-3.7-1.3-5.4c-0.4-1.6-0.7-2.6-0.8-3c-0.2-0.3-0.6-0.7-1-1.1
				c-0.5-0.5-0.7-0.9-0.7-1.3c-0.5-2.1-1-4.7-1.4-7.7c-0.4-3.1-0.8-6.3-1.3-9.8s-1-6.9-1.6-10.4c-0.6-3.4-1.4-6.6-2.4-9.4
				c-0.9-2.9-2.1-5.2-3.5-6.9c-0.5-0.6-0.5-1-0.2-1.3s0.5-0.7,0.6-1.4c-0.1-0.4-0.2-1.3-0.3-2.6c-0.2-1.4-0.4-3-0.6-4.8
				s-0.5-3.7-0.8-5.6s-0.6-3.5-0.9-4.9s-0.7-2.3-1-2.7c-0.9-0.9-1.9-1.6-3.2-2.2c-1.3-0.6-2.7-1.1-4.1-1.6s-2.6-1.1-3.6-1.8
				c-0.2-0.2-1.1-0.3-2.4-0.5c-1.4-0.1-2.9-0.1-4.5,0.1s-2.9,0.7-4,1.6c-1,0.8-1.2,2.2-0.7,4c0.3,1.2,0.6,2.5,0.9,3.8
				c0.2,1.3,0.5,2.7,0.8,4.3c0.2,1.1,0.3,2.2,0.3,3.3c0.1,1.1,0.2,2.2,0.3,3.3c0.3,1,0.7,2,1.2,2.9c0.4,1,0.9,2,1.2,2.9
				c0.7,2.1,1.4,4.2,2,6.3c0.7,2.1,1.2,4.2,1.8,6.3c0.6,2,0.9,4.1,1,6.3c0,2.2,0.1,4.3,0.4,6.5c0.2,2.2,0.5,4.4,0.8,6.5
				c0.4,2.1,0.7,4.3,0.9,6.5c0.4,2.2,1,4.3,1.6,6.4c0.7,2,1.2,4.2,1.4,6.4c0.2,1.1,0.3,2.2,0.6,3.2c0.2,1.1,0.5,2.2,0.8,3.4
				c0.1,0.8,0.4,1.8,0.8,3.2s0.7,2.7,1.1,4s0.7,2.4,0.8,3.2c0.1,0.7,0.2,1.2,0.2,1.5c0.1,0.3,0.2,0.6,0.2,0.9
				c0.1,0.3,0.1,0.8,0.2,1.5c0.2,1.1,0.5,2,0.9,2.8s0.7,1.8,0.8,2.8c0.3,0.9,0.9,2,1.7,3.3c0.9,1.3,1.8,2.5,2.7,3.9
				c1,1.3,1.8,2.4,2.4,3.4s1.2,1.8,2,2.5c0.7,0.7,1.8,1.3,3.5,1.6c2.8,0.5,5,0.9,6.6,1.1c1.6,0.2,3,0.3,4.1,0.2s2.1-0.3,3.1-0.7
				s2.2-0.9,3.6-1.6c1.6-0.8,2.4-1.5,2.5-2s-0.2-1.4-0.8-2.4c-0.3-0.9-0.2-2.1,0.3-3.7c0.5-1.6,1-3.2,1.7-4.8s1.1-2.8,1.4-3.6
				c0.3-0.9,1-2.6,2-5s2-5.1,3.3-8.2c1.2-3.1,2.5-6.2,3.7-9.3s2.3-5.9,3.3-8.4s1.6-4.2,2-5.3c0.3-1,0.7-1.9,1-2.8
				c0.3-0.9,0.7-1.8,1-2.6c0.1,0.5,0.1,1.7,0.1,3.6c-0.1,1.9-0.2,4.3-0.5,7c-0.2,2.7-0.4,5.7-0.7,8.7c-0.2,3-0.5,5.9-0.7,8.6
				c-0.2,2.7-0.4,5-0.5,6.8s-0.2,2.9-0.1,3.3c0.1,0.7,0.2,1.2,0.3,1.4c0.1,0.3,0.2,0.5,0.2,0.8c0.1,0.2,0.1,0.7,0.1,1.4
				c0.2,1.2,0.5,2.1,0.8,2.9c0.4,0.8,0.7,1.7,0.9,2.7c0.3,1,0.8,2.1,1.8,3.4c0.9,1.3,1.9,2.5,2.9,3.9c1,1.3,1.8,2.5,2.4,3.6
				c0.5,0.9,1,1.6,1.7,2.3s1.9,1.2,3.7,1.6c2.8,0.5,4.9,0.9,6.6,1.2c1.6,0.2,2.9,0.3,4,0.2c1-0.1,2-0.3,3-0.7s2.3-1,3.7-1.7
				c1.5-0.7,2.2-1.4,2.3-1.9c0.1-0.6-0.2-1.4-0.6-2.5c-0.3-0.9-0.2-2.1,0.2-3.7c0.4-1.6,1-3.2,1.6-4.8c0.7-1.6,1.2-2.8,1.6-3.6
				c0.6-1.4,1.4-2.6,2.3-3.6c1-0.9,1.9-2,2.8-3c1-1.1,1.7-2.5,2.3-4.2c0.7-2.1,1.4-4.1,2.2-6.1c0.7-1.9,1.4-3.8,1.9-5.5
				c0.3-1,1-2.8,2.2-5.5c1.1-2.6,2.5-5.7,4.1-9.2s3.3-7.2,5.1-10.9c1.8-3.7,3.5-7.3,5.1-10.5c1.6-3.3,3-6,4.1-8.1s1.9-3.3,2.1-3.5
				c0.9-0.4,1.9-1.3,3.2-2.6c1.2-1.4,2.4-2.9,3.6-4.6c1.2-1.7,2.3-3.3,3.2-4.8s1.4-2.7,1.6-3.4c0.2-0.9,0.4-1.5,0.6-1.8
				c0.2-0.3,0.3-0.6,0.5-0.7c0.1-0.1,0.2-0.4,0.3-0.7c0.2-0.2,0.5-0.3,0.9-0.5s0.7-0.5,0.9-0.9C527.1,90.6,526.9,90.1,526.4,89.4
				L526.4,89.4z M566.2,143.8L566.2,143.8c0.7,0.3,1,0.6,1,0.7c-0.1,0.2-0.2,0.4-0.6,0.7c-0.8,1.2-1.6,2.5-2.4,3.7
				c-0.7,1.2-1.5,2.5-2.4,3.7c-1.2,2-2.3,3.9-3.4,5.9c-1.1,2-2.2,3.9-3.4,5.7c-0.8,1.3-1.4,2.7-1.9,4.2c-0.5,1.6-1,3.1-1.5,4.6
				s-1,2.7-1.7,3.7c-0.7,1.4-1.3,2.5-1.6,3.5c-0.3,0.9-0.5,1.8-0.7,2.5s-0.6,1.5-1.1,2.3c-1.6,1.6-2.8,3-3.7,4.2
				c-0.8,1.2-1.7,2.1-2.7,2.7c-1,0.6-2.6,0.7-4.8,0.5c-2.3-0.3-3.8-0.5-4.7-0.6s-1.4-0.2-1.5-0.2c-0.2,0-0.2-0.1-0.2-0.2
				c0,0-0.2-0.2-0.7-0.4c-0.3-0.1-0.6-0.2-0.8-0.1c-0.2,0-0.5,0-0.9-0.1c-0.3-0.2-0.7-0.4-1.2-0.8c-0.5-0.4-0.8-0.8-1.2-1.2
				l-6.8-5.2v-11.8c-0.1-0.2-0.1-0.5,0.1-0.7c0.2-0.2,0.2-0.5,0.3-0.7c0,0,0.1-0.7,0.2-1.8c0.1-1.2,0.3-2.7,0.5-4.4
				c0.2-1.8,0.4-3.6,0.6-5.4c0.2-1.8,0.4-3.3,0.5-4.6c0.2-1.3,0.2-2,0.2-2.2c0.2-0.6,0.4-1.1,0.7-1.6s0.5-1,0.7-1.6
				c0.2-0.8,0.3-1.2,0.4-1.3c0.1-0.1,0.1-0.2,0-0.3c0-0.1-0.1-0.5-0.1-1.3c0.2-2.1,0.4-4.3,0.7-6.6s0.9-4.6,1.7-6.9
				c0.5-0.8,0.8-1.3,0.7-1.3c0,0,0.1-0.1,0.1-0.2c0.1-0.1,0.5-0.6,1.2-1.5l2-1.7c0.5-0.5,0.8-0.9,1-1.1s0.6-0.4,1-0.4l5.4,1.7
				c0.8,0.6,1.8,1.1,2.8,1.6c1.1,0.4,2.1,1.1,3.1,1.9c1,0.8,1.8,2,2.3,3.6c-0.7,0.2-1.2,0.9-1.6,2.2c-0.4,1.3-0.7,2.8-0.9,4.5
				s-0.4,3.4-0.5,4.9c-0.2,1.5-0.3,2.5-0.5,3.2c-0.4,1.1-0.7,2.3-0.8,3.6c-0.1,1.4-0.3,2.7-0.6,4.2c-0.1,0.7-0.2,1.5-0.6,2.3
				c-0.3,0.8-0.6,1.5-0.8,2.1c-0.1,1.2-0.3,2.7-0.6,4.4s-0.5,3.4-0.7,5.1c-0.2,1.7-0.2,3-0.1,4.1c0,0,0,0,0,0.1s0,0.1,0,0.1
				c0,0.5,0,0.9,0,1.1c0,0.2,0,0.3,0,0.2c0.2,0,0.3-0.1,0.4-0.3c0.1-0.2,0.3-0.4,0.6-0.7l2-2.2c0.3-0.2,0.7-0.8,1.3-1.8
				c0.6-0.9,1.1-1.9,1.7-2.9c0.6-0.9,0.9-1.6,1.1-1.8l2.4-2.9c0,0,0.4-0.7,1.2-2s1.9-2.9,3.2-4.9c0.7-1,1.4-2,2.2-3.1
				s1.5-2.2,2.2-3.3c0.8-1,1.6-1.9,2.3-2.8c0.7-0.9,1.4-1.8,2.1-2.8c0.3-0.6,0.7-1.2,1.1-1.7c0.3-0.5,0.8-1,1.3-1.5
				c0-0.2,0.1-0.4,0.2-0.5c0.1,0,0.2,0,0.2,0c0.2-0.1,0.3-0.1,0.6-0.1c0.2,0.1,0.5,0.2,0.8,0.3l0.7,0.5h0.7l1.7,0.7L566.2,143.8
				L566.2,143.8z M537,122.6L537,122.6c2,0.3,3.3,0.5,4,0.6s1.3,0,1.8-0.3l3.7-2.2c1.4-1.1,2.2-2.2,2.3-3.3c0.1-1.1-0.1-2.3-0.7-3.4
				c-0.6-1.1-1.1-2.3-1.6-3.3c-0.1-0.3-0.5-0.8-1.2-1.4c-0.7-0.7-1.2-1.1-1.5-1.3c-1.7-1.2-3.1-2-4.3-2.5c-1.1-0.5-2.2-0.7-2.9-0.7
				c-0.9,0-1.6,0.1-2.3,0.3c-1,0.1-1.9,0.5-2.6,1.1c-0.8,0.6-1.5,1.5-2.2,2.6c-0.2,0.2-0.3,0.5-0.3,0.9c-0.1,0.3-0.2,0.6-0.3,0.9
				c-0.5,1.4-0.9,2.5-1.1,3.4c-0.2,0.8-0.2,1.5,0.1,2.1s0.9,1.4,1.9,2.3s2.4,2.1,4.3,3.8c0.3,0.2,0.6,0.4,1,0.5
				C535.3,122.4,536,122.5,537,122.6L537,122.6z M616.2,71L616.2,71c-0.6-0.8-1-1.4-1.2-1.8c-0.3-0.4-0.9-0.7-1.8-0.9
				c-2.2-0.6-4.6-1.1-7-1.6c-2.5-0.4-5-0.9-7.6-1.4c-2.1-0.1-3.6-0.1-4.6,0.1s-1.9,0.6-2.6,1.1c-0.7,0.5-1.5,1.1-2.6,1.7
				c-1.6,1.6-3.1,3.5-4.3,5.5s-2.4,4-3.5,5.9c-1,1.6-2.1,3.3-3.2,5.2c-1.1,1.8-2.1,3.6-2.9,5.4c-1.4,3.4-2.7,6.7-3.9,9.9
				c-1.2,3.2-2.3,6.4-3.3,9.6s-1.8,6.6-2.3,10c0,0.3,0,0.6-0.1,1c0,0.4-0.1,0.7-0.3,1c-0.1,0.8-0.3,1.4-0.5,1.7
				c-0.2,0.3-0.7,0.7-1.5,1c0,0.1-0.1,0.2-0.2,0.2c-0.1,0-0.3,0.1-0.5,0.2c-0.2,0-0.4,0-0.7,0.2c-0.3,0.1-0.6,0.2-1,0.3
				c-0.3,0.1-0.6,0.3-0.8,0.5s-0.5,0.2-0.9,0.3c-0.2,0.1-0.4,0.2-0.7,0.2s-0.6,0.1-1,0.2c-0.2,0.1-0.4,0.2-0.7,0.4
				c-0.3,0.1-0.5,0.2-0.7,0.4c-0.5,0.1-0.8,0.3-0.9,0.5c-0.1,0.2-0.1,0.2-0.1,0.3c-0.3,0.1-0.6,0.3-0.7,0.5
				c-0.1,0.2-0.1,0.5,0.1,0.7c0.2,0.1,0.3,0.2,0.3,0.2c0.1,0,0.2,0,0.3,0c0.2,0.1,0.4,0.2,0.7,0.3s0.5,0.2,0.7,0.2s0.5-0.2,0.8-0.4
				s0.7-0.4,1.2-0.6c0.5-0.1,1-0.2,1.4-0.1c0.4,0,0.8,0,1.4-0.1c0.2,0,0.3-0.1,0.5-0.2c0.2-0.2,0.3-0.2,0.5-0.2
				c0.3-0.1,0.7-0.2,1-0.2c0.2,0,0.4,0,0.4,0c0,0.2-0.1,1.1-0.4,2.5c-0.2,1.5-0.6,3.2-1,5.3c-0.3,2.1-0.7,4.1-1.1,6.2
				c-0.4,2.1-0.7,3.9-1,5.4s-0.5,2.4-0.6,2.7c-0.2,0.7-0.3,1.4-0.3,2c-0.1,0.7-0.2,1.3-0.3,1.9c-0.1,1.4-0.3,3.1-0.7,5
				c-0.3,2-0.7,4.1-1.1,6.3c-0.5,2.2-0.8,4.2-1.1,6.1c-0.3,1.9-0.5,3.4-0.5,4.7c0,0.9-0.1,1.8-0.3,2.7c-0.2,1-0.3,2.1-0.3,3.1
				c0.2,0.8,0.3,1.6,0.3,2.5c0.1,0.9,0.2,1.8,0.3,2.7c0.2,1.1,0.3,2.2,0.6,3.4c0.2,1.2,0.4,2.3,0.8,3.4c0.8,2.5,1.9,4.4,3.3,5.6
				c1.4,1.2,3.7,2.1,6.9,2.8c1.8,0.5,3.3,0.9,4.9,1.2c1.5,0.3,2.7,0.5,3.6,0.5c1.1-0.1,2.2-0.4,3.1-0.9c0.9-0.5,2-1.4,3.3-2.7
				c1.4-1.5,2.5-3,3.5-4.4s1.8-2.7,2.7-4c0.7-1.1,1.4-2.3,2-3.4c0.7-1.2,1.4-2.3,2-3.4c1.2-1.8,2.3-3.7,3.3-5.6
				c1.1-1.9,2.1-3.8,3.1-5.7c0.6-1.2,1.4-2.6,2.5-4.2c1.1-1.6,2.2-3.3,3.3-5.1c0.5-0.6,0.8-1.3,1-2s0.5-1.3,0.7-2
				c0.7-1,1.3-1.9,1.8-2.9c0.6-0.9,1.1-1.8,1.6-2.7c0.3-0.7,0.7-1.4,1-2.1c0.3-0.6,0.6-1.2,0.7-1.8c0.4-0.9,0.9-1.8,1.4-2.7
				c0.6-0.9,1-1.8,1.4-2.7c0.5-0.7,0.8-1.3,0.8-1.7c0.1-0.4-0.1-0.7-0.5-1c-0.2-0.2-0.5-0.4-1-0.4c-0.5-0.1-1.1-0.2-1.8-0.3
				c-0.3,0-0.6-0.1-0.9-0.2c-0.3-0.1-0.6-0.2-1.1-0.2c-0.3,0.2-0.5,0.4-0.7,0.5c-0.1,0.1-0.3,0.3-0.7,0.5l-5.8,9.6l-2.4,4.2
				l-3.7,5.9l-4.4,7.9l-6.8,9.1l-3.4,3.9l-3.1,3.9l-2.7,3.4c-0.7,0.9-1.2,1.6-1.4,2c-0.1,0.4-0.2,0.4-0.1,0c0.1-0.4-0.1-1.4-0.2-3
				c0-0.1,0-0.3,0-0.5s0-0.4,0-0.5c0-0.2,0-0.4-0.1-0.5c0-0.1-0.1-0.2-0.3-0.5c0.5-0.2,0.7-1.1,0.9-2.7c0.2-1.6,0.3-3.6,0.5-6.1
				c0.1-2.5,0.3-5.3,0.7-8.4c0-1,0.1-2,0.2-3c0.1-1,0.3-2,0.5-3c0.2-1.5,0.3-3,0.5-4.5s0.3-3,0.5-4.3c0.3-1.2,0.6-2.4,0.8-3.6
				c0.2-1.1,0.2-2.2,0.2-3.3c0.2-0.6,0.3-1.2,0.3-1.8c0.1-0.6,0.1-1.2,0.1-1.8c0-0.5,0.2-1.6,0.5-3.3s0.7-3.7,1.1-6.1
				c0.5-2.3,0.9-4.7,1.4-7c0.4-2.3,0.8-4.3,1.1-6.1c0.3-1.7,0.4-2.8,0.4-3.3c1.5-0.7,2.7-1.3,3.7-1.7c1-0.5,2.2-1,3.5-1.7
				c0.3-0.2,0.6-0.5,0.9-0.6c0.2-0.2,0.5-0.4,0.9-0.6c1.2-0.7,2.4-1.6,3.7-2.7c1.4-1.2,2.9-2.4,4.8-3.6c1.2-0.7,2.6-1.6,3.9-2.8
				c1.4-1.1,2.6-2.4,3.9-3.6c1.2-1.3,2.3-2.4,3.2-3.4c2-2.5,3.7-4.9,5.1-7.4c0.3-0.7,0.7-1.4,1-1.9c0.3-0.6,0.6-1.1,0.7-1.8
				c0.9-1.9,1.5-3.6,1.9-4.9c0.3-1.3,0.4-2.5,0.2-3.6s-0.6-2.3-1.3-3.5C618.1,74.1,617.2,72.6,616.2,71L616.2,71z M606.3,77.4
				L606.3,77.4c0,0.5-0.1,1-0.2,1.6c-0.1,0.6-0.3,1.3-0.5,2c-0.2,0.4-0.3,0.7-0.3,1.1c-0.1,0.4-0.2,0.9-0.3,1.4
				c-0.2,0.5-0.3,1-0.6,1.6c-0.2,0.6-0.5,1.2-0.8,1.8c0,0.2-0.1,0.3-0.2,0.5c-0.1,0.2-0.2,0.5-0.2,0.7c-0.2,0.5-0.4,1.1-0.7,1.6
				c-0.3,0.6-0.5,1.1-0.7,1.6c-0.5,1.1-1,2.1-1.4,3s-0.9,1.6-1.4,2.1c-0.2,0.4-0.7,1.1-1.3,1.9c-0.6,0.9-1.2,1.7-1.9,2.5
				c-0.6,0.8-1.2,1.5-1.5,1.9c-0.6,0.7-1.3,1.4-2.3,2c-0.9,0.7-1.8,1.3-2.5,1.9l-5.4,4.6c0-1,0.3-2.4,1-4.4c0.2-0.5,0.6-1.3,1-2.2
				c0.5-0.9,0.9-1.8,1.4-2.8c0.5-0.9,0.8-1.7,1-2.3c0.7-1.5,1.4-3,2-4.4c0.3-0.9,0.7-1.7,1.2-2.6s1-1.7,1.5-2.6
				c0.3-1,0.7-1.9,1.2-2.9c0.5-0.9,1-1.8,1.5-2.7c0.7-1,1.4-2,2-2.9c0.7-0.9,1.2-1.8,1.8-2.5c0.1-0.1,0.3-0.5,0.8-1.1s1-1.2,1.6-1.8
				c0.5-0.6,0.9-0.9,1-0.9c0.3-0.2,0.7-0.5,1-0.7c0,0,0.1,0,0.2,0c0.1,0,0.2,0,0.2,0c0.3,0,0.7,0,1,0s0.6,0.1,0.7,0.2
				c0.5,0.1,0.6,0.3,0.4,0.7C606.5,75.7,606.4,76.4,606.3,77.4z"/>
			<path class="st0" d="M705.9,68.5c-0.5-0.7-0.7-1.3-1-1.6c-0.2-0.4-0.8-0.7-1.8-0.9c-2.2-0.6-4.6-1.1-7-1.6
				c-2.5-0.4-5-0.9-7.6-1.4c-2.1-0.2-3.6-0.2-4.6,0s-1.9,0.5-2.6,1.1c-0.7,0.5-1.5,1.2-2.6,1.9c-1.6,1.6-3.1,3.4-4.3,5.4
				s-2.4,3.9-3.5,5.9c-1,1.6-2.1,3.3-3.2,5.1c-1.1,1.8-2.1,3.6-2.9,5.5c-1.4,3.3-2.7,6.6-3.8,9.7c-1.2,3.2-2.2,6.3-3.1,9.5
				c-0.8,3.2-1.5,6.5-2,10c0,0.2-0.1,0.6-0.2,1c-0.1,0.4-0.2,0.7-0.2,1c-0.2,1-0.4,1.6-0.5,1.8c-0.1,0.2-0.1,0.3-0.2,0.2
				c-0.1,0-0.1,0-0.2,0.3c-0.1,0.2-0.3,0.8-0.5,1.8c-1.9-0.5-3.8-0.9-5.6-1.2c-1.8-0.3-3.3-0.5-4.6-0.8c-2.7-0.5-4.9-0.8-6.7-0.8
				s-3.4,0.2-4.9,0.7s-3.2,1.3-5.1,2.3c-1.9,1.2-3.7,2.3-5.4,3.4c-1.8,1-3.5,2.2-5.2,3.5c-1.8,1.5-3.6,3.4-5.4,5.6
				c-1.8,2.2-3.6,4.5-5.2,7.1c-1.6,2.5-3.1,5-4.5,7.3c-1.3,2.4-2.4,4.5-3.3,6.3c-0.8,1.8-1.1,3.7-1.1,5.6c0.1,1.8,0.2,3.8,0.4,5.7
				c0.1,1.7,0.6,3.2,1.2,4.5c0.7,1.4,1.7,2.7,2.8,3.9s2.4,2.6,3.7,4.1c0.8,0.9,1.5,1.5,2.2,1.8s1.5,0.5,2.4,0.7
				c0.9,0.1,1.9,0.3,3.3,0.5c1.5,0.2,2.9,0.1,4.2-0.3c1.2-0.4,2.4-0.8,3.6-1.2c0.2-0.1,0.8-0.7,2-1.9s2.6-2.6,4.1-4.2
				c1.5-1.6,2.9-3,4.1-4.3c1.2-1.3,1.8-2,2-2.2c0.4-0.4,1.1-1.2,2.3-2.3c1.1-1.2,2.4-2.5,4-4.1c1.5-1.6,3.1-3.1,4.7-4.7
				c1.6-1.6,3.1-2.9,4.4-4.1c-0.5,2.3-0.9,4.4-1.2,6.4s-0.5,3.6-0.5,4.7c0,0.9-0.1,1.8-0.3,2.9c-0.2,1.1-0.3,2.2-0.3,3.3
				c0.2,0.7,0.3,1.5,0.3,2.4c0.1,0.8,0.2,1.7,0.3,2.5c0.2,1.2,0.4,2.5,0.7,3.7s0.5,2.4,0.7,3.5c0.8,2.4,2.2,4.2,3.9,5.5
				c1.8,1.3,4.1,2.4,7,3.3c1.7,0.6,3.2,0.9,4.5,1c1.4,0.1,2.4,0.1,3.3,0c1.1,0,2.2-0.2,3.1-0.7c0.9-0.5,2-1.5,3.3-2.9
				c1.4-1.4,2.5-2.7,3.5-4.2c1-1.4,1.8-2.8,2.7-4.2c0.7-1.1,1.4-2.2,2.2-3.3s1.5-2.2,2.2-3.3c1.1-1.8,2.3-3.7,3.6-5.6
				c1.3-1.8,2.5-3.8,3.6-5.7c0.5-1.1,1-2.1,1.5-2.9c0.5-0.9,0.9-1.6,1.2-2.2c0.9-1.1,1.5-2.1,2.2-3.1c0.6-1,1.2-2.3,1.9-4
				c0.2-0.5,0.5-1,0.8-1.5s0.5-1,0.6-1.5c0-0.2,0-0.5,0.1-0.9c0-0.3,0.1-0.7,0.3-1.1c0.2-0.2,0.3-0.5,0.5-0.7s0.2-0.4,0.2-0.5
				c0.2-0.5,0.3-0.9,0.5-1.2c0.1-0.3,0.1-0.5-0.1-0.8c0-0.1-0.1-0.3-0.2-0.4c-0.1-0.1-0.3-0.2-0.5-0.4c-0.7-0.2-1.7-0.5-3.1-0.7
				c-0.2,0.3-0.3,0.6-0.6,0.7c-0.2,0.1-0.5,0.3-0.8,0.5l-3.4,5.4l-2.4,3.9l-5.4,7.6l-7.8,9.1l-3.4,3.7l-3.1,4.2l-2.7,3.2
				c-0.7,1-1,1.7-1.2,2.2c-0.1,0.4-0.2,0.4-0.1,0c0.1-0.4,0.1-1.4-0.1-2.9c0-0.2,0-0.5,0-0.6c0-0.2,0-0.3,0-0.4
				c-0.2-0.2-0.3-0.5-0.3-0.6c-0.1-0.2-0.2-0.3-0.3-0.4c0.5-0.3,0.7-1.3,0.8-3c0-1.7,0.1-4,0.2-6.8c0-1.1,0.2-2.3,0.4-3.6
				s0.4-2.5,0.6-3.8c0.2-1,0.3-2,0.3-3c0.1-1,0.2-2,0.3-2.9c0.2-1.6,0.3-3.2,0.5-4.6c0.2-1.5,0.3-3,0.5-4.5c0.3-1.1,0.6-2.2,0.8-3.4
				c0.2-1.1,0.4-2.3,0.6-3.5c0.1-0.6,0.2-1.2,0.3-1.7c0.2-0.5,0.3-1.1,0.3-1.7c0-0.4,0-1.3,0.1-2.6s0.2-2.9,0.6-4.8
				c0.2-1.4,0.5-2.5,0.6-3.3c0.1-0.7,0.2-1.4,0.2-1.8c0-0.5,0.1-1.1,0.1-1.8c0.1-0.7,0.1-1.7,0.2-3.1c1-0.5,1.6-0.9,2-1.2
				c0.3-0.3,0.7-0.6,1-0.9s0.9-0.7,1.8-1.1c0.3-0.2,0.7-0.5,1-0.6c0.3-0.2,0.7-0.4,1-0.6c1-0.7,2.2-1.6,3.5-2.7s3-2.4,5-3.6
				c1.1-0.7,2.4-1.6,3.6-2.8c1.3-1.1,2.6-2.4,3.7-3.6c1.2-1.2,2.3-2.4,3.2-3.4c2-2.5,3.7-4.9,5.1-7.4c0.3-0.6,0.7-1.2,1-1.8
				c0.3-0.6,0.6-1.2,0.7-1.8c1.2-2.6,2.2-4.7,2.7-6.3c0.6-1.7,0.7-3.3,0.3-4.9C708.3,72.7,707.4,70.8,705.9,68.5L705.9,68.5z
				 M651.2,139.6L651.2,139.6c0,0.2-0.1,0.5-0.2,0.7c-0.1,0.2-0.2,0.5-0.2,0.7c-0.7,0.2-1.7,0.7-3.1,1.5c-1,0.7-2.1,1.5-3.2,2.3
				c-1.1,0.8-2.1,1.6-2.9,2.3c-3,2.7-5.8,5.3-8.4,7.9c-2.6,2.5-5.4,5-8.3,7.3c-2.9,2.3-6.3,4.5-10.2,6.4c-0.2-0.9,0.3-2.3,1.3-4.5
				c1.1-2.1,2.4-4.6,4.2-7.3s3.6-5.5,5.4-8.2c1.9-2.7,3.6-5,5.2-7c1.5-2,2.6-3.2,3.3-3.8c0.4-0.2,0.9-0.5,1.6-1.1
				c0.7-0.5,1.4-1.1,2-1.6s1-0.9,1.1-1.2c0.4-1,1-1.7,1.9-2.1c0.9-0.4,1.9-0.7,2.9-0.8c2.2-0.4,4-0.7,5.6-0.9c1.5-0.2,2.8-0.4,4-0.5
				c-0.3,1.6-0.7,3.1-1,4.5s-0.6,2.6-0.8,3.5C651.3,138.7,651.2,139.3,651.2,139.6L651.2,139.6z M695.1,75.7L695.1,75.7
				c-0.1,0.5-0.3,1-0.7,1.5c-0.4,0.6-0.7,1.2-1,1.9c0,0.4-0.1,0.7-0.2,1.1c-0.1,0.4-0.3,0.8-0.5,1.3s-0.3,1-0.5,1.6
				s-0.3,1.2-0.5,1.8c-0.2,0.1-0.3,0.3-0.3,0.5c-0.1,0.2-0.2,0.4-0.3,0.7c-0.2,0.6-0.3,1.2-0.6,1.7c-0.2,0.5-0.5,1-0.8,1.5
				c-0.3,1.1-0.7,2.1-1.2,3c-0.4,0.9-0.9,1.6-1.2,2.1s-0.9,1.1-1.5,1.9c-0.7,0.9-1.3,1.7-1.9,2.5c-0.6,0.8-1.1,1.5-1.3,1.9
				c-0.6,0.7-1.3,1.4-2.3,2c-1,0.7-1.9,1.3-2.8,1.9l-3.4,4.4c0.2-0.5,0.3-1.1,0.6-1.9c0.2-0.8,0.5-1.6,0.8-2.5
				c0.2-0.5,0.6-1.3,1-2.2c0.5-0.9,0.9-1.9,1.4-2.9s0.8-1.8,1-2.5c0.3-0.6,0.7-1.3,1-2s0.7-1.4,1-2.2c0.3-0.9,0.7-1.7,1.2-2.6
				s1-1.8,1.5-2.8c0.3-0.9,0.7-1.8,1.2-2.7c0.5-0.9,1-1.8,1.5-2.7c0.7-1.1,1.3-2.1,1.9-3.1c0.6-0.9,1.2-1.7,1.9-2.3
				c0.1-0.1,0.3-0.5,0.8-1.1s1-1.3,1.6-1.9c0.5-0.7,0.9-1,1-1.1c0.2,0,0.3,0,0.5-0.2c0.2-0.1,0.3-0.2,0.5-0.3c0,0,0,0,0.1,0
				c0,0,0.1-0.1,0.3-0.2c0.3,0.1,0.7,0.2,1,0.2s0.6,0.1,0.7,0.2c0.3,0.1,0.3,0.2,0.1,0.5c-0.2,0.2-0.6,0.6-0.9,1.1
				C695.3,74.5,695.1,75,695.1,75.7z"/>
		</g>
		<g>
			<path class="st0" d="M765.4,133.9c-4.9-0.3-20.6,2.7-15.5-4.4c5.1-7.1,6.4-15.4,7.6-22.7c1.2-7.3,3.6-17.5,4.7-19.4
				c1.1-1.9,3.3-6.6-1-2.6s-7.3,10.9-8.4,16.2c-1.1,5.4-4.4,21.5-11.4,24s-11,7.7-11,7.7s6.7,2.3,9.7,3.1c3.1,0.8,5.3,2.1,2.3,6.4
				c-3,4.3-2.4,10.2-2.4,10.2s12-5.1,19.2-4.5s30.5,7.1,35.8,6.6s38.1,7,69.3,4.4c31.1-2.6,57.9-20.3,68.8-34
				c7.4-9.3,12-12.1,16.3-12.7c4.3-0.5,14.6-9.6,21.8-18.6c7.2-8.9,18.1-21.7,18-23.3c-0.1-1.6-2.9-1.1-7.5,4.2
				c-4.6,5.4-25.1,28.7-29.2,28.8c-4.1,0.1-2.4-2.9-0.6-6.8c1.8-4,22.6-58.3,26.1-68.7c3.6-10.5,6.8-23.2,6.8-23.2s-2-5.2-4.6-0.7
				c0,0-34.6,83.4-47.4,101.2c-12.7,17.7-45.9,38.7-64.2,41.7c14.1-20,27.7-42.7,31.5-60.6c-1.9-1.1-3.5,6-6.2,9
				c-2.7,2.9-31.9,55.3-51.3,53.2c-19.3-2.1-38.7-6.8-38.7-6.8s20.6-8.7,25.7-16.8c0.5-2.7-1.3-1.2-4.1,0.1
				c-2.8,1.4-19.6,12.3-32.5,11.9C780.4,136.5,770.2,134.2,765.4,133.9z"/>
			<path class="st0" d="M310.3,133.9c4.8-0.3,20.6,2.7,15.5-4.4c-5.1-7.1-6.4-15.4-7.6-22.7c-1.2-7.3-3.6-17.5-4.7-19.4
				s-3.3-6.6,1-2.6s7.3,10.9,8.4,16.2c1.1,5.4,4.4,21.5,11.4,24s11,7.7,11,7.7s-6.7,2.3-9.7,3.1c-3.1,0.8-5.3,2.1-2.3,6.4
				c3,4.3,2.4,10.2,2.4,10.2s-12-5.1-19.2-4.5s-30.5,7.1-35.8,6.6s-38.1,7-69.3,4.4c-31.1-2.6-57.9-20.3-68.8-34
				c-7.4-9.3-12-12.1-16.3-12.7c-4.3-0.5-14.6-9.6-21.8-18.6c-7.2-8.9-18.1-21.7-18-23.3c0.1-1.6,2.8-1.1,7.5,4.2
				c4.6,5.4,25.1,28.7,29.2,28.8c4.1,0.1,2.4-2.9,0.6-6.8c-1.8-4-22.6-58.3-26.1-68.7c-3.6-10.5-6.8-23.2-6.8-23.2s2-5.2,4.6-0.7
				c0,0,34.6,83.4,47.4,101.2c12.7,17.7,45.9,38.7,64.2,41.7c-14.1-20-27.7-42.7-31.5-60.6c1.9-1.1,3.5,6,6.2,9
				c2.7,2.9,31.9,55.3,51.3,53.2c19.3-2.1,38.7-6.8,38.7-6.8s-20.6-8.7-25.7-16.8c-0.5-2.7,1.3-1.2,4.1,0.1
				c2.8,1.4,19.6,12.3,32.5,11.9C295.2,136.5,305.4,134.2,310.3,133.9z"/>
		</g>
		<path class="st0" d="M446.5,487.4c34.2,0,68.4,0.1,102.7,0c28-0.1,55.9,0.4,83.8,0.3h4.7c18.9,0.5,37.9,0.9,56.8,1.2
			c4.7,0.1,9.3,0.1,14,0.2v0.3h1.4c2.6,0.1,5.1,0.4,7,2.2c5.9,5.2,12,10.3,17.7,15.7c2.2,2.1,4.3,2.8,7.3,2.7
			c10.8-0.5,21.7-1.4,32.5-1.9c1.8,1.5,3.6,2,6,1.9c16.3-0.9,32.6-2.7,48.9-2.4c1.6,0,3.4,0.2,4.2-1.6c0.9-2.1-0.9-3.2-2.3-4.1
			c-4.4-3-8.4-6.4-12.3-11.8c7-0.5,13-1,18.9-1.2c1.1,0,2.1-0.1,3.2-0.2c1.3-0.1,2.5-0.1,3.8-0.2v-0.2c1-0.1,2.1-0.3,3.1-0.6
			c0.8-0.2,1.5-0.6,1.6-1.5s-0.5-1.5-1.3-1.8c-1.1-0.4-2.3-0.8-3.4-1.2v-1.1l-5.5-0.1c-0.7-0.1-1.4-0.2-2-0.2
			c-4.8-0.3-9.4-1.3-14.3-0.9c-3.4,0.3-3.9-0.9-1.9-3.8c2.7-4,7.2-6.2,10.6-9.5c0.7-0.7,1.7-1.1,2.4-1.7c1.4-1.3,3.7-2.6,3.1-4.6
			c-0.7-2.2-3.1-0.5-4.8-0.7c-0.8-0.1-1.6,0-2.4-0.2c-10.3-2.7-20.8,0.1-31.2-0.2c-1.7,0-3.5,0-5.2,0c-10.7-2.2-21.5,0.3-32.2,0
			c-7.2-0.2-14.4,0.6-21.6-0.3c-2-0.3-3.2,0.7-4.6,1.5c-5.3,3.1-9.9,6.9-13.7,11.4c-2.5,3-5.4,4.8-8.8,5.5c-1.2,0-2.4,0-3.5-0.1
			l-0.1,2.6c-7.9,0.2-15.7,0.4-23.5,0.8c-20.1-2.1-42.2-2.3-62.3-2.7c-26.1-0.5-52.2-0.2-78.2,0.3c-13.6,0.3-27.2,0.6-40.8,1
			c-20.9-0.1-41.8-0.1-62.6-0.2l-23.1-0.1c-47.8-1.6-95.6-1.6-143.4-0.7c2.8-1,5.7-2.1,8.5-3.2c4.2-1.6,8.5-3.4,12.7-5.1
			c0.6-0.2,1.2-0.6,1.8-0.6c4.6-0.4,5.1-2.4,5.4-4.6c0.3-2.9-1.6-5.7,0.8-8.4c0.1-0.8,0.2-1.5-0.5-1.7c-0.9-0.3-1.9,0.2-2.8,0.6
			c-6.2,2.8-12.2,5.7-18.4,8.3c-6.1,2.6-12.2,5-18.6,7.2c-6.1,2-12.1,4.2-18,6.2s-11.7,3.8-17.6,5.5c-3,0.8-3,2-0.1,2.9
			c0.7,0.2,1.6,0.3,2.4,0.5c4.3,1,8.7,1.9,12.9,3c4.5,1.3,8.9,2.7,13.4,4.1c4.5,1.5,9,3,13.7,4.3c1.9,0.5,3.6,1.3,5.3,2
			c3.3,1.4,6.7,2.9,10.1,4.3c3.4,1.5,6.9,2.9,10.4,4.4c6.4,2.7,8.3,2.1,8.3-2.4c0-0.3-0.1-0.6-0.2-1c-0.8-2.2-1.1-4.3,0.1-6.4
			c0.8-1.4-0.7-2.7-3.2-3c-3.2-0.4-5.8-1.4-8.5-2.3c-3.6-1.3-7.1-2.6-10.6-3.8c-2.7-0.9-5.4-1.7-8.3-2.4c16.1-0.1,32.3-0.1,48.4-0.2
			c3.5,0.1,6.9,0.1,10.3,0.2c0.4,0.1,0.8,0.2,1.3,0.3C371.6,488.9,409.1,488.6,446.5,487.4L446.5,487.4z M524.6,483L524.6,483
			c-12.5,0-24.9,0-37.4,0c1.2,0,2.4-0.1,3.6-0.1c11.2-0.2,22.4-0.3,33.6-0.2C524.5,482.8,524.5,482.9,524.6,483L524.6,483z
			 M735.9,464.3L735.9,464.3c0.6-0.2,1.6-0.1,2.2,0.4c0.4,0.3,0.7,0.8,0.3,1.3c-0.2,0.3-0.5,0.6-0.8,0.8c-1.9,1.5-4,2.7-5.9,4.3
			c-2.4,2-4.6,3.9-7.3,5.6c-0.6,0.2-1.3,0.3-2.1,0.2c2.2-2.3,3.8-4.1,5.5-5.7c1.4-1.4,2.8-3,4.6-4
			C733.7,466.4,734.5,464.8,735.9,464.3L735.9,464.3z M741.2,465.9L741.2,465.9c1.5-1.3,3.3-2.1,5.4-1.8c3.9,0.7-1.1,4.6-2.4,5.6
			c-2.6,2.1-5.5,3.7-8.2,5.6c-0.6,0.4-3.7,2.5-5.8,3.4h-1.9v-0.1c-0.4-1-0.2-1.8,0.2-2.5c1.4-1,2.7-2.1,4-3.2c2-1.7,4.4-2.7,6.2-4.7
			C739.6,467.5,740.4,466.6,741.2,465.9L741.2,465.9z M605.4,481.2L605.4,481.2c-10.1-0.2-20.3-0.2-30.4-0.3
			c13.9-0.1,27.7-0.2,41.6-0.1c5.3,0.1,10.6,0.2,15.9,0.4c-8.9,0-17.7,0-26.4,0H605.4L605.4,481.2z M752.7,465.1L752.7,465.1
			c1.3-0.8,2.4-1.1,3.1-0.3c0.8,0.9-14,11.1-15.3,11.9c-1.2,0.7-2.5,1.5-3.9,1.8c0.7-2.1,2.4-2.9,4.4-3.8
			C745.8,472.6,748.3,467.8,752.7,465.1L752.7,465.1z M254.5,483.8L254.5,483.8c-1.3,0.2-2.8,0.6-3.4-0.3c-0.6-0.8,0.8-1.1,2.1-1.5
			l1.4-0.3v2.1H254.5z M313,480.6L313,480.6c-10.2-0.2-20.5-0.1-30.7,0.2c0-0.1-0.1-0.2-0.4-0.2c-0.4-0.1-0.8-0.1-1.2-0.1
			c13.1-0.2,26.1-0.2,39.2-0.2C317.5,480.4,315.2,480.5,313,480.6L313,480.6z M266.8,479.7L266.8,479.7l-5.2,0.1
			c0.8-0.2,1.6-0.5,2.4-0.7c3.6-1.1,7.1-2.3,10.4-3.6c1.3-0.5,2.9-1.1,4.9-0.4c-1.4,1.1-3.4,1.5-5.1,2
			C271.5,477.9,269.1,478.8,266.8,479.7L266.8,479.7z M246.6,484.4L246.6,484.4c1.9,0.8,4.3,1.2,6.6,2.7c-4.1-0.3-6.5-1-9.1-1.5
			c-0.6-0.1-1.2-0.4-0.9-0.7c0.2-0.2,0.7-0.3,1.1-0.4C245,484.3,245.9,484.2,246.6,484.4L246.6,484.4z M362,481.9L362,481.9
			c-17.6,0.2-35.1,0.5-52.6,0.7c-0.1,0-0.2,0-0.3,0c18.5-1.1,37.3-0.9,55.9-0.8h3.2C366,481.8,364,481.9,362,481.9L362,481.9z
			 M273.9,472.4L273.9,472.4c-2.8,1-5.7,2-8.6,3c-0.2-0.1-0.3-0.3-0.5-0.4c3-0.9,5.4-2.2,8-3.5c0.5-0.3,1.3-0.5,1.8-0.2
			C275.3,471.7,274.6,472.2,273.9,472.4L273.9,472.4z M288.5,496.3L288.5,496.3c0.8-0.5,1.4,0.1,2,0.2s1.2,0.4,1.1,1
			C290.2,497.3,289.2,497,288.5,496.3L288.5,496.3z M265.5,489.9L265.5,489.9c0.5,0.1,1,0.2,1.1,0.5c0.1,0.2-0.2,0.3-0.6,0.2
			c-0.4-0.1-0.9-0.3-1.1-0.5C264.7,489.9,265.1,489.8,265.5,489.9L265.5,489.9z M246.5,481.2L246.5,481.2c0.9-0.2,1.7-0.1,2,0.3
			c0.3,0.3-0.2,0.6-0.8,0.8c-2.5,0.6-4.9,1.3-8.9,1.2C241.8,482.4,244,481.7,246.5,481.2L246.5,481.2z M293.5,468.9L293.5,468.9
			l-0.7,0.3c0-0.1-0.1-0.3-0.1-0.4c0,0,0.2-0.1,0.4-0.1C293.4,468.5,293.6,468.7,293.5,468.9L293.5,468.9z M789.4,485.6L789.4,485.6
			c-3.9-0.3-7.9-0.3-11.9-0.3c-0.7,0-0.5-0.4,0.1-0.4c2.3-0.1,4.5-0.2,6.8-0.3c0.5,0,0.5,0.2,0.3,0.3c1.7,0,3.4,0.1,5,0.2
			C790.4,485.2,790,485.7,789.4,485.6L789.4,485.6z M716.6,483L716.6,483c1.6,0,3.2-0.1,4.9-0.1c14.3-0.2,28.5-0.2,42.8-0.2l8.1,0.4
			C753.8,483.2,735.2,483.1,716.6,483L716.6,483z M745.9,505.3L745.9,505.3c-4.5-3.3-10.1-5.5-14-11.2
			C738.6,496.9,741.8,501.6,745.9,505.3L745.9,505.3z M739.7,490.5L739.7,490.5c1.2-0.6,2.7-0.5,3.7,0c6.3,2.9,10.9,7.8,16.8,11.3
			c1.1,0.6,2.8,1.2,2.4,3C756.9,504.1,742.4,495.1,739.7,490.5L739.7,490.5z M753,504.5L753,504.5c-6.2-1.7-9.3-5.1-12.2-8.5
			C745.2,497.7,749.2,499.9,753,504.5L753,504.5z M770.5,504.4L770.5,504.4c-6.9-1.7-18.6-9.7-21-14.2c3.6,0.2,3.6,0.1,5.3,1.9
			c2.9,2.8,6.5,5,10.2,6.9c1.8,1.7,3.6,3.4,5.4,5.1C770.5,504.3,770.5,504.4,770.5,504.4L770.5,504.4z M780,500.9L780,500.9
			c-2.3-1.2-4.7-2.6-6.8-4c-0.8-0.8-1.5-1.8-2.2-2.8C775,495.9,777.6,498.4,780,500.9L780,500.9z M788.2,503.5L788.2,503.5
			c-4.1-1.8-6.5-4.7-8.9-7.5c0.7,0.3,1.3,0.6,2,0.9C783.8,498.7,786.1,500.9,788.2,503.5L788.2,503.5z M798.8,504.4L798.8,504.4
			c-0.4-1.1-1.6-1.8-2.7-2.5c-4.2-2.7-8.1-5.7-11.9-10.3c4.8,2.9,8.6,7,13.4,10c1,0.6,2.6,1.2,2.2,3
			C799.5,504.6,799.1,504.5,798.8,504.4L798.8,504.4z M752.6,475.8L752.6,475.8c10.2-10.4,10.2-10.4,14.6-10.5
			C762.9,469.8,757.8,472.8,752.6,475.8L752.6,475.8z M771.7,467.1L771.7,467.1c0.6-0.4,1.1-1.1,1.6-1.7c0.8-0.4,1.5-0.8,2.3-1.2
			c-3.7,3.3-7.1,6.9-11,9.9c0.9-1.1,1.8-2,2.7-3C768.8,469.7,770.1,468.1,771.7,467.1L771.7,467.1z M777.5,468.2L777.5,468.2
			c0.8-0.7,1.6-1.5,2.4-2.3c1-0.9,2.2-1.6,3.5-1.8c0.3,0,0.6,0,1,0c0.2,0,0.3,0,0.5,0.1c3.7,0.7-1,4.6-2.2,5.6l-0.5,0.4
			c-1.3,1-2.5,1.9-3.8,2.8c-0.8,0.6-1.7,1.2-2.6,1.8c-2.4,1.6-5,3-7.8,4.2c-0.1-0.1-0.2-0.2-0.2-0.3c-0.4-1-0.1-1.8,0.2-2.5
			c1.3-1,2.6-2.1,3.8-3.3C773.6,471.1,775.9,470.1,777.5,468.2L777.5,468.2z M776,478.4L776,478.4c1.1-1.3,2.4-2.5,3.9-3.8
			c1.4-0.8,2.7-1.8,3.8-2.9c2.5-1.7,5-3.1,7.2-4c-3.9,3.4-10.9,8.4-11.7,9C778.2,477.4,777.1,478,776,478.4L776,478.4z M807.2,504.3
			L807.2,504.3c-6.5-1.7-17.4-9.7-19.6-14.1c3.4,0.1,3.4,0.1,5,1.9c2.9,3.1,6.8,5.5,10.6,7.5l0.8,0.4c0.7,0.4,1.4,0.8,1.9,1.5
			C806.1,501.7,807.3,504.3,807.2,504.3L807.2,504.3z M815.4,504.7L815.4,504.7c-3.3-0.4-5.2-1.9-7.1-3.6c-0.6-0.5-12.9-9.5-12.3-10
			c0.8-0.7,1.6-0.9,1.9-0.5c4,4,9.4,6.2,13.8,9.7C813.1,501.4,814.8,502.3,815.4,504.7L815.4,504.7z M790.5,475.8L790.5,475.8
			c9.6-10.4,9.6-10.4,13.7-10.5C800.2,469.7,795.4,472.8,790.5,475.8L790.5,475.8z M794.1,478.8L794.1,478.8
			c4.8-6.3,11.1-10.9,18.1-14.7C806.6,469.5,801.6,475.6,794.1,478.8L794.1,478.8z M813.1,467.3L813.1,467.3c3-3.4,6.5-4.1,12.2-2.6
			c-8.3,5.8-14.4,12.8-24.5,15.6c1.3-3.3,3-5,4.7-6.5C808,471.6,810.9,469.7,813.1,467.3L813.1,467.3z M298.8,461.4L298.8,461.4
			c0,1.1-1.5,2.3-3.4,2.5c-0.8,0.1-1.2-0.1-1.3-0.6c-0.2-1.3,1.4-2.1,3.2-2.7C298.4,460.4,298.8,460.9,298.8,461.4L298.8,461.4z
			 M283.9,467.4L283.9,467.4c-1.2,1.7-2.9,2-4.8,2.1C280.7,468.8,282.3,468.1,283.9,467.4L283.9,467.4z M267.6,494.4L267.6,494.4
			c0.5,0.1,0.9,0.3,0.9,0.6c-0.3,0.2-0.9,0.2-1.3,0s-1-0.5-0.9-0.6C266.5,494.2,267.1,494.3,267.6,494.4L267.6,494.4z M811.3,479.7
			L811.3,479.7c3.9-5.5,12.8-12,17.6-12.9C823,471,818.8,476.3,811.3,479.7L811.3,479.7z M824.2,503.9L824.2,503.9
			c-6.1-0.9-18.3-8.8-21.1-13.3c3.1-1.7,5.3,0.5,7.6,1.7C816,495.1,820.3,498.7,824.2,503.9z"/>
		<path class="st0" d="M495.6,442l0.2-2.5c0.1-1.6,0.7-1.3,1.7-1.6l4.5,0.3l0,0l0.2-0.4v-0.1c-0.2-0.8,0.4-1.1-1.6-1.4l-1.4-0.1
			h-4.3l-3.9,0.1c-0.5,0.1-1.5,0-2.1,0.4v0.1c-0.8,0.5,0.5,2.2,0.5,2.5l-0.6,5.7l-0.2,4.9l-0.3,6.4l-0.2,1.9l-0.1,2.9v0.1l0.1,2.4
			c0,0.2,0,2.7,0.3,2.8l3.1,0.4l1.1,0.1l2.9,0.1l3-0.1l2.7,0.1c1.1,0.2,0.6-0.6,0.8-1.6l-0.5-0.2l-2.3-0.2l-2-0.1l-2-0.1
			c-1.2-1.2-0.5-3.4-0.5-5v-1.6l-0.1-1.2c0.4-0.6,5.6,0.3,5.6,0c0-0.1,0.7-0.4-0.5-1.2h-1.1l-3.3-0.6c-0.9,0-0.4-0.5-0.6-1l0.1-2.2
			l0.1-1.6l0.1-1.5L495.6,442L495.6,442z M569.9,447.1L569.9,447.1l-0.3,4.5v6l0.4,2.9l0.1,2.3l-0.2,2.5c-0.1,1.1-1.2,1.8,2.1,1.5
			l4.5-0.1h0.1h2.4l1.4-0.6l0,0c0.9-0.8,3-4,3.3-5l0.5-1l0.2-0.4c0.4-0.9,1.2-2.9,1.2-3.8l0.3-1.7v-1.9c0-2.6-0.4-3.3-0.5-4.5
			l-2.2-6.6l-0.1-0.1c-0.4-1-1.7-2.3-2.5-2.8l-1.7-1c-0.7-0.7-3.9-1.5-4.8-1.5h-2.7c-0.4,0.1-1.6,0.1-1.6,0.5l0.5,1l0.2,1v0.8
			l-0.1,2.2l-0.2,2.5L569.9,447.1L569.9,447.1z M576.5,449.8L576.5,449.8l0.1-6l0.2-4.6c0-0.4,0.6-0.1,0.8-0.1l1,0.6l1.5,1.8
			l0.5,1.1l0,0l0.5,1.3c0.4,0.4,1.1,4.7,1.2,5.8l0.1,1.8l-0.1,3.5l-0.2,1.5l-0.1,1.3l-0.8,3v0.1c0,0-1,2.8-2.6,3.1
			c-0.1,0-1.3,0.4-1.3,0.1l-0.3-3.3l-0.2-3.3l-0.1-2.7v-2.5l0,0L576.5,449.8L576.5,449.8z M547.7,446.5L547.7,446.5l0.1,5.9L548,465
			v1.1v0.6h1.4c1-0.2,1.6,0.1,2.1,0.1l1.9-0.1c0.8-0.1,0.7-0.3,0.4-1.2l-0.1-1.7l-0.2-2.3l0.1-1.2v-1.2l-0.1-7.2v-0.1l0.1-1.4
			l0.1-4.8V442l-0.2-1.8l0.1-1.9c0-0.7,1.2-0.6,2-0.5c0.5,0,2.6,0.5,2.8-0.4l-0.2-0.4l-0.6-0.6l0,0h-3.8l-2.1-0.1l-1.6-0.1l-6-0.1
			c-0.1-0.1-0.7-0.1-0.7,0.2c0,0.5,0,1.1,0.4,1.6h0.5h3.1l0.1,0.1l0.1,4.2L547.7,446.5L547.7,446.5z M522,450.3L522,450.3
			c2.3,0.7,2.6,1.9,3.1,2.2l0,0l0.6,1.8l0.1,1.5l0.2,3.8l-0.3,2.8c-0.4,1.7-1.9,2.7-2.6,2.1l-0.4-0.2c-0.2-0.2-2.3-1.2-2.3-1.8
			l-0.7-3.1c0-0.5,0.1-1.5-0.2-1.9c-0.4-0.5-3.6-1.3-3.6-1.3c-1.2,0-1.5,0-1.7,1.4v2.5c0.1,0.2,0.2,1.9,1,2.9l1.1,1.7
			c1,1.3,1.1,1.3,2.7,1.7l1.6,0.2l3.6,0.4h1.5l1.7-0.3l0.4-0.1c1.1-0.3,1.6-0.9,2.2-1.6l0.4-0.6c0.7-1.2,1.6-3.4,1.4-4.8l0.3-1.7
			v-1.2l-0.4-4.3l-0.8-1.6c-0.5-0.8-1.1-1.2-1.9-1.5l-1-0.7l0,0c-0.5-0.5-3.1-0.9-3.9-0.9c-0.6,0-2.8-0.3-3.1-0.8l-0.4-1.4l-0.4-2.7
			c-0.3-1.1,0.3-3.7,0.7-4.8l0.1-0.2l1.3-1.7l0.3-0.1c0.2-0.2,1.4,0.2,2,0.8l2,1.8l0.9,2l0.3,1.7c0.3,0.5,0.1,1.3,1.7,0.7
			c0.9-0.3,0.9-0.7,1.6-0.7c0.5,0-0.4-3.5-0.6-3.9c-0.5-1-0.8-1.8-1.7-2.5c-0.6-0.5-1.7-1.4-2.4-1.4l-2-0.2h-0.1l-0.4-0.1h-0.2
			l-2.7,0.6c-1,0.3-4.4,1.2-4.9,2.1l-1.1,3.5c-0.7,1.2-0.4,3.5,0.3,5c0.9,1.7,1.5,2.3,2.9,3.5c0,0,0,0,0.1,0L522,450.3z"/>
		<path class="st0" d="M521,519.9v3v0.8v0.1v0.9l-0.4,5.2v0.5l0,0c0,0.5-0.4,2.9-0.8,3.5l-0.8,1h-0.1l-1.7,0.7l-1.6-0.3l-1.2-0.3
			c-0.3-0.3-1.3-0.7-2-2.5l-1.2-3.2l-0.4-2v-0.1l-0.1-0.4c-1.2,0-0.7-0.7-1,0.7l0,0c0,2.9-0.1,3.8,1.8,6.5l0.9,0.9l0,0
			c0.8,0.8,3.7,2,4.8,2.1c0.9,0,2.3,0.3,3.5-0.2c0.9-0.4,2.2-1,3-1.7c0.1,0,1-0.7,1.3-1.6l0.8-2.1l0,0l1.2-4.6l0.4-1.5l0,0l0.1-1.2
			V522v-2.1v-0.2l-0.2-4.5l-0.4-2.1l-0.1-0.2l-0.4-1.2l-0.4-0.8l-1-1.5l-1.1-1.1l-1.9-1.1h-0.2l-0.4-0.1l-1.3-0.3h-1.8l-1,0.2
			c-0.8,0.3-2.3,0.9-2.9,1.5c-0.1,0.1-0.1,0.1-0.2,0.2h-0.1v0.1c-1.5,1.5-1.8,3.1-2.4,4c-0.5,0.7-0.9,2.8-0.9,3.9l0.8,2.6
			c0,0,0,0,0,0.1l0.9,1.3c1,1.1,2.2,1.8,3.7,1.8c1.2,0,2.1-0.8,3-1.5l0.2-0.1l0.4-0.3l0.4-0.4h0.1l0.7-0.5l0.1-0.1L521,519.9
			L521,519.9L521,519.9z M573.5,523.2L573.5,523.2l-1.3,4.8l-0.8,4.6l0,0l0,0l-0.3,1.8l0.1,0.1l0.1,0.1l0,0h-0.1l-0.2,0.8l-0.3,1.2
			c0.1,0.1-0.4,0.8,0.7,0.8h0.1l0.8-0.1l2.6-0.2h0.8l0,0l1.5,0.1l0.1-0.1c0,0,0.5-1.4,0.3-2.7c0,0,0,0,0-0.1v-1.4l0.3-4v-0.8
			l0.4-1.5l1.3-3.1c0,0,0,0-0.1,0l0,0l-0.3-0.1l-0.2,0.1v-0.2l0,0l0.2-0.3l0,0l0,0l0,0l0,0l0,0l0,0v0.2l-0.2-0.1l0,0l0,0l0.3,0.2
			l0,0l0.2-0.4c0.3,0-0.1-0.4,0.6-0.4l1.9-0.1l2.8-0.4l0,0l-0.3-1.2h-0.2l-2.1,0.3h-0.7h-1.1l0,0l0.5-1l1-2.3l0,0l1-2.1l1.2-1.6
			l2-2.2v-0.1l0.2-0.7v-0.3l0.5-1.8l0.2-1.3c-0.2-0.9-3.6-1.5-4.8-1.5l-1.5,0.2l-3.3,0.4l-5.3,0.3l-2,0.1l-1,0.1h-0.7
			c-0.2-0.2-1.8,0-1.8,0.4v0.4l0,0c0.1,0.3,0.7,0.2,0.7,0.8l0.1,0.1l0.1,0.1l0.5,1.5c0.5,0.8,2.2,0.3,2.1-0.4L570,509l-0.1-0.2v-0.1
			l5.8-0.1l0,0h0.5c0.4-0.4,3.7-0.3,4.2-0.4h0.4l-0.3,0.8l-0.5,0.8l-0.3,0.8l-0.1,0.3l-1.4,2.1l-0.9,1.3l-1.7,3.2l-1.1,3l-0.2,0.3
			l-0.3,0.5l-0.2,0.7l-4.6,0.5c-0.6,0.3-0.3,0.2-0.1,0.5l0.1,0.1c0.4,0.4,0.6,0.4,1.5,0.3l0.8-0.2L573.5,523.2L573.5,523.2z
			 M546.8,526L546.8,526l0.8,0.9l0.6,1.2l0.5,0.7l0,0l0.6,1.4l0.1,2.4l-0.7,1.8h-0.1l-0.4,0.4l-0.3,0.2l-1.1,0.5
			c-1.1,0.1-1.7,0.2-3.1-0.5l-1.4-1l-0.6-1l-0.5-1.7c0-0.3-0.4-1.7,0.3-3l0.6-1.3l0.1-0.1l0.4-0.5l1.5-1.2l0.3-0.2h0.1l0.9-0.5
			l0.4,0.3L546.8,526L546.8,526z M543.9,524.2L543.9,524.2l-2.2,2.1l-1.5,2.1l-0.4,1.5v0.5v0.4c0,1.1,1.3,4.1,2.1,5.1
			c0.3,0.4,3,1.2,3.7,1.2l1.2,0.1h2.1l0,0h0.7l0.7-0.2l0,0l0,0l0,0l0,0l0,0v0.1c0.7,0,2.4-1.1,3.1-1.9l1.4-2.3l0.1-1
			c-0.2-0.7,0.1-1.9-0.7-2.9l-1.3-2.2l-0.4-0.7l-0.5-0.7l-2.1-1.9l0,0v0.2l-0.1-0.4c-1.2-1.2-0.1-0.9,0.4-1.8v-0.1l0.1-0.1h0.1
			l1-1.8l0.6-1l0,0l0,0l0.7-2.1l0.1-2.9l0.1-1.1c-0.1-1.4-0.3-0.7-0.8-2.1l-0.4-0.6l-0.8-0.8l-2.8-1.6l-2.4-0.4l-1.9,0.1l-1.9,0.8
			c-1,0.7-2,2.1-2.2,3.1l-0.3,1.6v0.3l0,0v0.2v0.8l0.2,1.2c0,0.8,1.4,4.3,1.7,4.6l1,1.3l1,1.4l1.3,1.4l0,0l0,0l-0.3,0.3l0,0h-0.1
			L543.9,524.2L543.9,524.2z M547.5,520.9L547.5,520.9c-1.1-0.5-1.2-1.9-1.9-2.3l-0.5-0.9l-0.6-1.5l-0.1-3v-0.4l0.3-1.6l0.7-1.2
			c0.7-0.9,2.6,0,2.8,0.2l1,0.9c0.6,0.9,1.3,2.1,1.1,3.1l0,0l-0.3,2.6c-0.3,1.1-0.6,2.1-1.5,3l0,0l-0.4,0.5L547.5,520.9L547.5,520.9
			z M495.8,523.7L495.8,523.7c0.4-0.4,0.1-5.4,0.2-6.6l0.3-2.4v-0.1c-0.3-0.3,0.2-0.9,0.3-1.9l-0.1-2.7l-0.2-1.1
			c0-0.5-2.9-1.5-2.9-1.6l-0.8-0.7l0,0l-0.6-0.2h-0.2l0,0l-0.2,0.3l-0.8,0.7l-0.4,0.7l-1.1,3.5l-1,2.3v0.1l-0.6,1.2l-1,2l0,0
			c0,0,0.5,0.2,0.7-0.2l1.8-1.5l0.8-0.5l0,0h0.1l-0.1,1v0.7l0,0l0,0l0.1,0.9v0.1v1.2l0.3,1.8l-0.1,3.7l-0.1,3.1l0.3,2.9v0.1v0.5
			l0.3,3l0,0l0.1,0.7v0.6v0.2v0.6c0,1.1,0.1,0.7,1.4,0.8h0.1c1.7,0,1.5,0.2,3.4-0.3c1.6-0.5,0.8-0.4,1.4-0.9h0.2h0.1l-0.8-1.8
			l-0.6-2.8l0,0l-0.2-3.5v-2.3l-0.1-1.8L495.8,523.7L495.8,523.7z M520.7,517.3L520.7,517.3l-1.7,1.6l-2.3,1.7l-0.3,0.2
			c0,0-0.7,0.4-1.2-0.1v-0.1l-0.2-0.2l-0.7-2.4l0,0v-0.8l0.2-1.6V515l0,0l0,0l0,0l0,0l-0.1-0.1c0.6,0,0.1-0.3,0.7-1.7l0.8-2.2
			c0.3-0.7,0.5-1.6,1.5-2.1c2.1-1.1,2.6,1.6,2.6,1.6l0.3,1.7l0,0l0.1,0.6l0.1,1.4l0.4,2.7L520.7,517.3z"/>
	</g>
</g>
</svg>
